<?xml version="1.0" encoding="utf-8" standalone="no"?>
<!DOCTYPE svg PUBLIC "-//W3C//DTD SVG 1.1//EN"
  "http://www.w3.org/Graphics/SVG/1.1/DTD/svg11.dtd">
<svg xmlns:xlink="http://www.w3.org/1999/xlink" width="266.112pt" height="266.112pt" viewBox="0 0 266.112 266.112" xmlns="http://www.w3.org/2000/svg" version="1.1">
 <metadata>
  <rdf:RDF xmlns:dc="http://purl.org/dc/elements/1.1/" xmlns:cc="http://creativecommons.org/ns#" xmlns:rdf="http://www.w3.org/1999/02/22-rdf-syntax-ns#">
   <cc:Work>
    <dc:type rdf:resource="http://purl.org/dc/dcmitype/StillImage"/>
    <dc:date>2024-03-18T16:12:49.639529</dc:date>
    <dc:format>image/svg+xml</dc:format>
    <dc:creator>
     <cc:Agent>
      <dc:title>Matplotlib v3.8.3, https://matplotlib.org/</dc:title>
     </cc:Agent>
    </dc:creator>
   </cc:Work>
  </rdf:RDF>
 </metadata>
 <defs>
  <style type="text/css">*{stroke-linejoin: round; stroke-linecap: butt}</style>
 </defs>
 <g id="figure_1">
  <g id="patch_1">
   <path d="M 0 266.112 
L 266.112 266.112 
L 266.112 0 
L 0 0 
z
" style="fill: #ffffff"/>
  </g>
  <g id="axes_1">
   <g id="PatchCollection_1">
    <path d="M 266.112 266.112 
L 266.112 -0 
L 0 -0 
L 0 266.112 
L 266.112 266.112 
" clip-path="url(#p7bdf5f7a98)" style="fill: #0f056b"/>
   </g>
   <g id="text_1">
    <g clip-path="url(#p7bdf5f7a98)">
     <!-- ∞ -->
     <g style="fill: #ffffff" transform="translate(27.700531 230.563812) scale(3.5 -3.5)">
      <defs>
       <path id="DejaVuSansMono-221e" d="M 2169 1959 
Q 2347 1534 2489 1378 
Q 2631 1222 2822 1222 
Q 3044 1222 3186 1431 
Q 3328 1641 3328 1978 
Q 3328 2313 3197 2513 
Q 3066 2713 2847 2713 
Q 2641 2713 2477 2530 
Q 2313 2347 2169 1959 
z
M 1678 1984 
Q 1503 2403 1359 2558 
Q 1216 2713 1025 2713 
Q 803 2713 661 2505 
Q 519 2297 519 1966 
Q 519 1625 648 1423 
Q 778 1222 991 1222 
Q 1200 1222 1365 1406 
Q 1531 1591 1678 1984 
z
M 1925 2388 
Q 2072 2753 2301 2951 
Q 2531 3150 2816 3150 
Q 3188 3150 3456 2808 
Q 3725 2466 3725 1966 
Q 3725 1444 3470 1112 
Q 3216 781 2822 781 
Q 2563 781 2363 937 
Q 2163 1094 1919 1503 
Q 1716 1116 1509 948 
Q 1303 781 1038 781 
Q 647 781 387 1115 
Q 128 1450 128 1966 
Q 128 2506 373 2828 
Q 619 3150 1031 3150 
Q 1325 3150 1537 2970 
Q 1750 2791 1925 2388 
z
" transform="scale(0.015625)"/>
      </defs>
      <use xlink:href="#DejaVuSansMono-221e"/>
     </g>
    </g>
   </g>
  </g>
 </g>
 <defs>
  <clipPath id="p7bdf5f7a98">
   <rect x="0" y="-0" width="266.112" height="266.112"/>
  </clipPath>
 </defs>
</svg>
